<?xml version="1.0" encoding="utf-8"?>
<!-- Generator: Adobe Illustrator 18.1.1, SVG Export Plug-In . SVG Version: 6.00 Build 0)  -->
<svg version="1.1" id="Layer_1" xmlns="http://www.w3.org/2000/svg" xmlns:xlink="http://www.w3.org/1999/xlink" x="0px" y="0px"
	 viewBox="237.7 70.2 442.8 442.8" enable-background="new 237.7 70.2 442.8 442.8" xml:space="preserve">
<g id="Layer_1_1_" display="none">
	
		<image display="inline" overflow="visible" enable-background="new    " width="3693" height="3251" xlink:href="3CC5D21C1797BEFB.jpeg"  transform="matrix(0.1259 0 0 0.1259 217.1205 61)">
	</image>
</g>
<g id="Layer_4">
	<path fill="#8CA6B8" d="M459.1,70.2c-122.3,0-221.4,99.1-221.4,221.4S336.8,513,459.1,513s221.4-99.1,221.4-221.4
		S581.4,70.2,459.1,70.2z M458.7,485.5c-107.9,0-195.3-86.2-195.3-192.5s87.5-192.5,195.3-192.5S654,186.8,654,293.1
		S566.5,485.5,458.7,485.5z"/>
	
		<linearGradient id="SVGID_1_" gradientUnits="userSpaceOnUse" x1="458.8" y1="66" x2="458.8" y2="471.4" gradientTransform="matrix(1 0 0 -1 0 560)">
		<stop  offset="0" style="stop-color:#8CA6B8"/>
		<stop  offset="1.785379e-02" style="stop-color:#87A2B5"/>
		<stop  offset="0.1488" style="stop-color:#678BA5"/>
		<stop  offset="0.275" style="stop-color:#507B99"/>
		<stop  offset="0.3934" style="stop-color:#427091"/>
		<stop  offset="0.496" style="stop-color:#3D6D8F"/>
	</linearGradient>
	<ellipse fill="url(#SVGID_1_)" cx="458.8" cy="291.3" rx="205.7" ry="202.7"/>
</g>
<g id="Left_hand">
	<g>
		<g id="XMLID_1_">
			<g>
				<path fill="#FFFFFF" d="M305.1,426.2c2.2-3.2,4.4-6.4,6.7-9.5c0-0.1,0.1-0.1,0.1-0.1c1.4-2.2,2.9-4.4,4.3-6.5
					c2.5-5.3,4.8-10.6,7-16c3-7.4,6.1-14.6,6-22.6c-0.1-7.8-0.4-15.7-0.4-23.5c0-5.7-0.1-11.4,2.8-16.5c0.1-0.2,0.2-0.4,0.4-0.7l0,0
					c0.1-0.2,0.3-0.3,0.4-0.4c5.2-5.5,5.5-13.1,8.3-19.9c1.9-4.7,4.9-8.6,8.7-12c0-0.1,0.1-0.2,0.1-0.3c1.7-3.5,3.5-7,5.2-10.5
					c1.1-2.1,2-4.5,4-5.9c4-2.8,10.5-1.1,14.6,0.5c0.2,0.1,0.3,0.1,0.4,0.2l0,0c0,0,0,0,0.1,0h0.1c1-3.9,8.5-2.1,11.5-1.5
					c9.1,1.7,17.6,5.1,25.6,9.8c0.2,0.1,0.3,0.2,0.4,0.4c4.2,0.5,8.2,1.6,12,3.6c5,2.6,8.1,7.5,12.9,10.2c1.3,0.7,0.7,2.4-0.4,2.7
					c-1.6,2.6-4.2,4.5-7.2,5.4c-2.9,0.9-6.1,0.9-8.9-0.2c-0.1,0.2-0.2,0.4-0.4,0.5c-4.4,3.4-9.9,2.5-15,1.4l0,0v0.1
					c-1.5,3.7-3.6,6.9-6.5,9.6c0.1,0.3,0,0.6-0.1,1c-1.5,3.1-3.2,5.9-5.3,8.6c-0.1,0.1-0.2,0.2-0.3,0.3c3.3,2.5,4.1,6.2,4.1,10.2
					c0.9-0.2,1.8-0.4,2.6-0.6c0.1-0.3,0.3-0.5,0.6-0.6c0.1,0,0.1-0.1,0.2-0.1c0.3-0.1,0.6-0.2,0.8-0.1c1.2-0.8,2.5-2.5,3.2-3.4
					c1.2-1.4,2.2-2.9,3.4-4.3c1.6-2,3.3-3.9,5.3-5.4c0-0.1,0-0.1,0-0.2c-0.2-4.7,5.5-10,8.8-12.8c2.1-1.8,4.9-2.9,7.8-3.7
					c2.9-0.8,5.9-1.3,8.5-1.9c1-0.3,1.7,0.5,1.8,1.3c5,5-4.1,11.6-5.6,15.9c-0.2,0.6-0.8,1-1.3,1c0.6,5.8-0.1,10.2-3.9,15.1
					c-4.4,5.6-7.7,11.8-11.1,18c-0.7,0.7-2.3,2.3-2.8,3.2l0,0c-5,8.1-11.3,14.9-18.1,21.6c-7.9,7.9-15.2,16.2-22,25.1
					c-0.3,0.4-0.3,0.4-0.8,0.9c-0.3,0.4-0.3,0.4-0.3,0.4c-0.4,0.5-0.5,0.5-0.8,1c-7,7-12.3,15.4-15.3,24.8c-1.9,5.9-2.5,12-4.6,17.8
					c-1.8,3.8-2.7,6.5-3.3,5.9C332.7,452.8,317.5,440,305.1,426.2z"/>
			</g>
		</g>
	</g>
</g>
<g id="Right_hand">
	<g>
		<g id="XMLID_2_">
			<g>
				<path fill="#FFFFFF" d="M600,286.4c4.5,4.7,2.9,8.4,2.3,14.4c-1.2,13,2.8,26.4-2.5,38.9c-5.5,12.9-12.9,25.7-15,39.8
					c-0.5,0.7-0.7,1.6-0.7,2.5v0.3l-0.1,0.1c0,0.2,0.1,0.3,0.1,0.5v0.3c0,0.9,0.2,1.7,0.7,2.4c3.7,14.9,8.2,29.4,14,43.7
					c1,2.5,2.4,5.1,3.4,7.5c-16.3,15.6-36.2,29.3-56,38.2c-0.5-3-1.1-6.6-1.7-9.6c-1.2-6.1-2.5-12.2-4.1-18.2
					c-1.3-5-2.9-10-4.6-14.9c0.1-0.6-0.4-1-0.5-1.6c-0.6-2.1-0.7-2-1.1-4.5c0-0.1-0.3-1.4-0.3-1.5l-0.2-0.5
					c-0.1-0.3-0.2-0.5-0.3-0.9c-0.2-0.5-0.2-1.2-0.4-1.8c-0.2-0.9-0.5-1.6-0.7-2.6c-0.1-0.4-0.2-0.8-0.4-1.2l0,0
					c-4.8-13.5-8.7-27.3-13-40.9c-1.2-4-2.6-7.9-3.8-11.9c-1.1-3.7-1.6-7.5-2.4-11.2c-0.9-3.7-1.7-7.6-3.8-10.8
					c-1.3-2-2.8-3.5-3.3-5.8c-0.8-3.3-0.3-7.2-0.7-10.6c-0.5-4.6-1.4-9.1-2.5-13.5c-0.9-3.5-1.9-6.9-3-10.3c-0.9-2.7-3.1-6.7-3-9.4
					c0.1-2.9,2.8-6.7,3.9-9.5c1.5-3.7,2.9-7.5,3.8-11.3c0.5-2.1,0.9-4.2,1.1-6.3c0.1-0.9-0.2-3,0.2-3.8c0.3-0.8,1-1.3,1.8-1.6
					c-23.2-28.7-47.5-56.3-70.8-84.9c-11.3-13.9-23-27.5-34.7-41.1c-3.3-3.9-18.9-17.7-8.6-22c0.1,0,0.1,0,0.2-0.1
					c0,0,0.1,0,0.1-0.1c0.7-0.3,1.2,0,1.5,0.4c39.5,45.4,78.2,91.4,117.2,137.2l0,0c0.1,0.2,0.2,0.4,0.3,0.6c0.7,1,1.4,1.7,2.2,2.4
					c1.3,1.6,2.7,3.2,4,4.7c0.7-0.7,1.7-1.2,2.7-1.5c0.2-0.1,0.5-0.1,0.7,0c0.2-0.2,0.5-0.3,0.8-0.3c0.9-0.1,1.3-0.1,1.8-0.1
					c0.8-2.6,2.2-5.3,4.8-6.4c3.3-1.5,5.9,0.6,9.1,1.4c4.6,1.1,9.8-2.3,13.7-0.5c1,1.1,2.2,2.1,3.3,3.1v0.1c1.6,2.9,9,5,11.1,5.7
					c3.4,1.2,6.8,2.2,10.3,3.3c2.5,0.8,5.4,1.1,7.5,2.7c1.9,1.4,2.6,3.7,3.7,5.8C591.5,277,595.3,281.6,600,286.4z M530,284.9
					c0.2-2.1,1.4-6.1-0.5-7.9c-0.3-0.2-0.4-0.5-0.4-0.8c-0.4,0.1-0.7,0-1.1-0.2c-0.1-0.1-0.2-0.2-0.4-0.2c-0.1,0-0.3,0-0.4-0.1
					c-0.7,0.5-1.4,1.1-2.1,1.6c-0.4,6-0.9,11.4,0.4,17.4c0.9,4,1.3,9.7,3.3,13.7c0.8-5.2,0.9-10.4,1-15.6
					C529.7,290.2,529.8,287.6,530,284.9z"/>
			</g>
		</g>
	</g>
</g>
</svg>
